<?xml version="1.0" encoding="UTF-8" standalone="no"?>
<svg
   width="174.329mm"
   height="59.6055mm"
   viewBox="0 0 2059 704"
   version="1.1"
   id="svg1"
   sodipodi:docname="header.svg"
   inkscape:version="1.4.1 (93de688d07, 2025-03-30)"
   xmlns:inkscape="http://www.inkscape.org/namespaces/inkscape"
   xmlns:sodipodi="http://sodipodi.sourceforge.net/DTD/sodipodi-0.dtd"
   xmlns="http://www.w3.org/2000/svg"
   xmlns:svg="http://www.w3.org/2000/svg">
  <defs
     id="defs1" />
  <sodipodi:namedview
     id="namedview1"
     pagecolor="#ffffff"
     bordercolor="#000000"
     borderopacity="0.25"
     inkscape:showpageshadow="2"
     inkscape:pageopacity="0.0"
     inkscape:pagecheckerboard="0"
     inkscape:deskcolor="#d1d1d1"
     inkscape:document-units="mm"
     inkscape:zoom="1.8713539"
     inkscape:cx="329.17343"
     inkscape:cy="112.4854"
     inkscape:window-width="1920"
     inkscape:window-height="1008"
     inkscape:window-x="0"
     inkscape:window-y="0"
     inkscape:window-maximized="1"
     inkscape:current-layer="svg1" />
  <path
     id="Selection"
     fill="none"
     stroke="black"
     stroke-width="1"
     d="M 294.00,232.00            C 291.82,222.34 292.12,226.17 292.00,216.00              292.00,216.00 291.00,203.00 291.00,203.00              291.00,203.00 288.00,150.00 288.00,150.00              288.00,150.00 287.00,135.00 287.00,135.00              287.00,135.00 287.00,129.00 287.00,129.00              287.05,118.63 291.95,114.86 301.00,121.56              308.36,126.99 313.36,135.46 316.30,144.00              318.16,149.36 318.99,159.23 319.00,165.00              319.00,165.00 322.00,216.00 322.00,216.00              322.00,216.00 323.00,231.00 323.00,231.00              338.15,231.00 364.48,227.62 378.00,232.00              378.03,222.64 382.45,211.55 384.58,202.00              384.58,202.00 394.08,151.00 394.08,151.00              395.24,143.94 394.55,127.01 405.00,128.38              415.86,129.81 426.20,147.97 430.75,157.00              432.58,160.62 435.89,169.81 440.10,170.59              443.46,171.22 448.24,168.48 451.00,166.77              457.95,162.46 462.87,157.69 467.56,151.00              469.82,147.78 472.58,141.07 476.10,139.78              480.98,137.98 486.80,142.88 489.96,146.04              492.25,148.32 493.82,150.29 495.56,153.00              500.33,160.45 504.16,170.01 502.79,179.00              502.09,183.60 498.56,189.27 495.84,193.00              487.53,204.40 471.05,217.75 456.00,216.79              442.86,215.95 432.01,202.23 424.00,193.00              423.03,204.99 416.48,235.56 413.37,248.00              411.91,253.86 410.39,263.78 405.00,267.00              409.67,281.28 409.98,290.27 410.00,305.00              410.00,305.00 411.00,322.00 411.00,322.00              411.00,322.00 411.00,354.00 411.00,354.00              411.00,354.00 412.00,371.00 412.00,371.00              412.00,371.00 412.00,390.00 412.00,390.00              412.00,390.00 413.00,406.00 413.00,406.00              413.00,406.00 413.00,432.00 413.00,432.00              413.00,432.00 414.00,447.00 414.00,447.00              414.00,447.00 414.00,464.00 414.00,464.00              414.00,464.00 415.00,480.00 415.00,480.00              415.00,480.00 417.17,513.00 417.17,513.00              417.17,513.00 420.00,545.00 420.00,545.00              420.01,550.03 421.47,561.96 416.77,564.83              414.50,566.22 410.63,566.00 408.00,566.00              408.00,566.00 397.00,566.00 397.00,566.00              397.00,566.00 387.00,566.91 387.00,566.91              387.00,566.91 360.00,568.91 360.00,568.91              360.00,568.91 300.00,572.09 300.00,572.09              300.00,572.09 268.00,575.00 268.00,575.00              257.07,575.12 247.24,575.59 237.00,570.81              232.82,568.86 230.22,566.19 227.00,563.00              216.26,552.37 208.02,539.54 208.00,524.00              208.00,524.00 208.00,488.00 208.00,488.00              208.00,488.00 207.00,472.00 207.00,472.00              207.00,472.00 207.00,434.00 207.00,434.00              207.00,434.00 206.00,417.00 206.00,417.00              206.00,417.00 206.00,328.00 206.00,328.00              206.00,328.00 206.00,253.00 206.00,253.00              205.98,240.06 201.71,240.44 198.76,229.00              198.76,229.00 197.41,220.00 197.41,220.00              196.49,214.19 194.23,203.40 192.30,198.00              190.68,193.44 187.48,186.70 183.70,183.65              175.22,176.80 163.20,182.09 157.65,190.00              152.27,197.65 154.31,205.19 149.77,207.81              145.17,210.48 139.22,205.92 136.01,202.91              126.32,193.80 121.85,182.08 122.00,169.00              122.33,141.92 149.60,127.67 173.00,139.37              179.64,142.70 183.84,146.85 189.00,152.00              204.70,167.68 213.67,184.10 220.67,205.00              220.67,205.00 226.00,223.00 226.00,223.00              226.56,225.57 227.10,229.40 229.43,230.98              231.26,232.22 234.82,232.00 237.00,232.00              237.00,232.00 294.00,232.00 294.00,232.00 Z            M 853.00,498.00            C 851.84,504.19 848.11,510.37 845.24,516.00              833.82,538.45 806.54,565.39 780.00,566.91              754.10,568.38 731.76,539.61 723.20,518.00              715.42,498.35 713.37,476.92 711.91,456.00              711.91,456.00 710.00,415.00 710.00,415.00              710.00,415.00 709.00,398.00 709.00,398.00              709.00,398.00 709.00,351.00 709.00,351.00              709.00,351.00 710.00,334.00 710.00,334.00              710.00,334.00 710.00,267.00 710.00,267.00              710.00,242.50 710.45,218.33 707.28,194.00              707.28,194.00 704.40,176.00 704.40,176.00              704.00,174.00 703.35,169.92 702.07,168.41              699.66,165.58 689.59,168.28 687.04,170.31              679.77,176.10 676.11,192.00 676.00,201.00              675.96,204.96 676.65,215.80 674.83,218.77              670.90,225.18 662.69,219.35 659.01,215.91              650.27,207.70 645.02,195.93 645.00,184.00              645.00,184.00 645.00,164.00 645.00,164.00              645.15,151.12 651.46,131.88 663.00,125.01              665.54,123.50 677.79,121.18 681.00,121.04              685.74,120.83 689.66,121.55 694.00,123.52              700.06,126.26 705.43,131.17 709.91,136.00              732.86,160.72 737.89,197.83 740.09,230.00              740.09,230.00 741.00,242.00 741.00,242.00              741.00,242.00 741.00,373.00 741.00,373.00              741.00,373.00 740.00,388.00 740.00,388.00              740.00,388.00 740.00,415.00 740.00,415.00              740.00,415.00 741.00,428.00 741.00,428.00              741.27,451.10 742.26,474.10 745.58,497.00              746.42,502.76 746.91,516.44 752.14,519.55              759.71,524.05 772.13,519.05 779.00,515.13              798.82,503.81 813.93,482.90 822.40,462.00              832.69,436.58 836.43,402.35 839.17,375.00              839.17,375.00 842.00,339.00 842.00,339.00              842.00,339.00 843.00,317.00 843.00,317.00              843.00,317.00 844.00,302.00 844.00,302.00              844.00,302.00 844.00,285.00 844.00,285.00              844.00,285.00 845.00,268.00 845.00,268.00              845.00,268.00 845.00,249.00 845.00,249.00              845.00,249.00 846.00,233.00 846.00,233.00              846.00,233.00 846.00,210.00 846.00,210.00              846.00,210.00 847.00,193.00 847.00,193.00              847.00,193.00 847.00,160.00 847.00,160.00              847.00,157.75 846.86,154.14 847.74,152.11              851.30,143.81 861.14,151.23 864.96,155.04              873.13,163.20 877.98,174.51 878.00,186.00              878.00,186.00 878.00,318.00 878.00,318.00              878.00,318.00 878.00,426.00 878.00,426.00              878.00,426.00 879.00,441.00 879.00,441.00              879.00,441.00 879.00,456.00 879.00,456.00              879.00,456.00 880.00,470.00 880.00,470.00              880.15,482.98 881.21,496.22 883.61,509.00              884.27,512.53 885.08,520.05 888.28,521.97              890.45,523.26 893.67,522.49 896.00,521.97              903.35,520.38 910.86,515.90 917.00,511.65              939.73,495.95 960.33,463.56 970.55,438.00              978.15,418.99 987.97,385.25 988.00,365.00              988.00,365.00 988.00,303.00 988.00,303.00              988.00,303.00 988.00,244.00 988.00,244.00              988.00,244.00 989.00,228.00 989.00,228.00              989.00,228.00 989.00,201.00 989.00,201.00              989.00,201.00 990.00,184.00 990.00,184.00              990.00,184.00 992.17,146.00 992.17,146.00              992.88,139.23 995.16,130.65 1004.00,134.23              1011.47,137.25 1018.13,146.83 1021.33,154.00              1026.39,165.31 1025.01,173.59 1041.00,172.96              1052.07,172.53 1068.34,166.24 1075.82,157.98              1078.19,155.37 1081.04,151.23 1082.47,148.00              1084.38,143.69 1084.65,137.92 1091.00,138.45              1096.59,138.91 1103.11,145.71 1106.35,150.00              1117.49,165.59 1118.58,181.62 1106.35,197.00              1094.98,211.62 1075.01,218.03 1057.00,218.00              1044.11,217.98 1037.50,212.88 1026.00,208.00              1026.00,208.00 1025.00,229.00 1025.00,229.00              1025.00,229.00 1025.00,294.00 1025.00,294.00              1025.00,294.00 1024.00,309.00 1024.00,309.00              1024.00,309.00 1024.00,341.00 1024.00,341.00              1024.00,341.00 1023.00,363.00 1023.00,363.00              1023.00,363.00 1019.84,406.00 1019.84,406.00              1019.84,406.00 1019.84,415.00 1019.84,415.00              1019.84,415.00 1019.84,457.00 1019.84,457.00              1019.84,457.00 1021.00,477.00 1021.00,477.00              1021.00,477.00 1023.44,502.00 1023.44,502.00              1023.44,502.00 1026.00,517.00 1026.00,517.00              1041.49,516.95 1052.85,510.06 1065.00,501.12              1082.28,488.39 1101.11,470.34 1109.07,450.00              1109.07,450.00 1113.80,421.00 1113.80,421.00              1117.40,402.65 1124.93,378.82 1134.81,363.00              1138.04,357.83 1142.68,352.44 1148.00,349.36              1154.31,345.70 1169.87,343.83 1177.00,345.53              1179.99,346.24 1182.57,347.68 1185.00,349.53              1202.53,362.89 1205.84,376.49 1214.00,395.00              1217.38,383.65 1225.07,386.60 1231.99,393.09              1241.13,401.68 1246.14,413.56 1246.00,426.00              1245.89,435.07 1240.56,447.31 1238.42,457.00              1238.42,457.00 1233.28,490.00 1233.28,490.00              1233.28,490.00 1232.00,502.00 1232.00,502.00              1241.59,496.40 1254.70,480.98 1261.79,472.00              1278.51,450.81 1293.32,428.26 1306.99,405.00              1306.99,405.00 1318.86,384.00 1318.86,384.00              1318.86,384.00 1324.44,375.00 1324.44,375.00              1327.02,369.83 1324.96,364.81 1330.11,362.75              1336.12,360.35 1343.23,367.05 1346.91,371.00              1354.02,378.64 1363.31,396.93 1378.01,412.00              1396.57,431.02 1411.67,446.92 1425.40,470.00              1431.24,479.82 1437.86,494.47 1438.00,506.00              1438.11,515.28 1438.40,524.25 1434.66,533.00              1431.46,540.51 1428.78,543.35 1423.00,548.99              1408.89,562.76 1389.58,569.43 1370.00,568.99              1359.09,568.74 1346.05,566.43 1336.00,562.13              1321.40,555.87 1304.96,542.47 1298.12,528.00              1292.98,517.13 1295.14,516.51 1293.00,509.00              1290.03,514.63 1286.51,518.23 1282.42,523.00              1274.57,532.16 1260.79,546.86 1249.00,550.21              1246.01,551.06 1243.08,551.03 1240.00,551.00              1236.13,550.96 1233.56,550.78 1230.00,549.00              1217.71,542.86 1212.82,530.77 1206.00,520.00              1203.52,525.05 1201.47,527.64 1198.00,532.00              1188.39,544.04 1170.02,562.53 1153.00,559.68              1136.06,556.83 1123.19,535.96 1118.00,521.00              1118.00,521.00 1106.00,532.91 1106.00,532.91              1089.27,548.47 1057.87,569.99 1034.00,559.47              1028.15,556.90 1023.45,552.45 1019.00,548.00              1012.70,541.70 1010.53,538.83 1006.31,531.00              1003.45,525.70 997.88,511.76 997.18,506.00              996.36,499.19 997.95,492.85 996.00,486.00              993.83,493.62 986.47,506.25 982.00,513.00              966.66,536.14 938.38,568.69 908.00,567.99              880.07,567.34 864.25,537.34 857.02,514.00              857.02,514.00 853.00,498.00 853.00,498.00 Z            M 480.10,255.78            C 485.66,254.86 489.03,257.38 492.99,261.09              499.49,267.20 506.18,278.96 506.91,288.00              507.52,295.60 502.84,319.87 501.42,329.00              501.42,329.00 496.72,364.00 496.72,364.00              496.72,364.00 490.93,408.00 490.93,408.00              490.93,408.00 486.72,443.00 486.72,443.00              486.24,446.85 486.14,452.64 481.89,454.22              477.05,456.03 471.18,451.10 468.04,447.96              458.42,438.35 454.85,427.24 455.00,414.00              455.00,414.00 458.84,380.00 458.84,380.00              458.84,380.00 470.00,295.00 470.00,295.00              470.00,295.00 474.25,268.00 474.25,268.00              475.15,262.58 474.99,258.84 480.10,255.78 Z            M 110.11,272.78            C 122.92,270.65 133.56,290.81 137.00,301.00              137.00,301.00 145.15,331.00 145.15,331.00              145.15,331.00 165.37,412.00 165.37,412.00              165.37,412.00 171.96,445.00 171.96,445.00              172.13,448.94 172.39,454.55 167.89,456.22              163.79,457.75 158.92,454.37 156.00,451.81              148.61,445.33 143.38,435.41 140.75,426.00              140.75,426.00 135.13,400.00 135.13,400.00              135.13,400.00 112.87,311.00 112.87,311.00              112.87,311.00 106.04,283.00 106.04,283.00              105.83,278.18 105.77,275.44 110.11,272.78 Z            M 379.00,275.04            C 379.00,275.04 364.00,275.04 364.00,275.04              364.00,275.04 353.00,276.00 353.00,276.00              353.00,276.00 331.00,276.00 331.00,276.00              331.00,276.00 314.00,277.00 314.00,277.00              314.00,277.00 237.00,277.00 237.00,277.00              237.00,277.00 237.00,435.00 237.00,435.00              237.00,435.00 238.00,450.00 238.00,450.00              238.00,450.00 238.00,487.00 238.00,487.00              238.00,487.00 239.00,503.00 239.00,503.00              239.00,503.00 239.00,530.00 239.00,530.00              239.00,530.00 300.00,526.00 300.00,526.00              300.00,526.00 318.00,525.00 318.00,525.00              318.00,525.00 330.00,524.09 330.00,524.09              330.00,524.09 388.00,521.00 388.00,521.00              388.00,521.00 385.09,485.00 385.09,485.00              385.09,485.00 383.00,431.00 383.00,431.00              383.00,431.00 382.00,416.00 382.00,416.00              382.00,416.00 382.00,390.00 382.00,390.00              382.00,390.00 381.00,375.00 381.00,375.00              381.00,375.00 381.00,355.00 381.00,355.00              381.00,355.00 380.00,338.00 380.00,338.00              380.00,338.00 380.00,306.00 380.00,306.00              380.00,306.00 379.00,290.00 379.00,290.00              379.00,290.00 379.00,275.04 379.00,275.04 Z            M 1575.00,438.00            C 1575.00,449.66 1575.43,460.41 1573.56,472.00              1569.46,497.47 1558.04,518.74 1541.28,538.00              1531.73,548.98 1516.56,562.64 1501.00,561.96              1488.57,561.42 1480.19,553.39 1472.01,545.00              1459.27,531.92 1452.47,511.22 1447.28,494.00              1443.90,482.77 1441.14,473.96 1441.00,462.00              1440.70,436.02 1439.66,407.84 1448.34,383.00              1450.10,377.98 1457.18,361.38 1461.10,358.85              1466.11,355.38 1469.32,359.42 1474.00,358.85              1474.00,358.85 1486.00,355.42 1486.00,355.42              1494.28,353.57 1497.73,353.99 1506.00,354.00              1525.99,354.03 1537.71,363.07 1550.96,377.00              1554.35,380.56 1560.63,391.33 1563.21,392.40              1570.98,395.63 1579.89,384.85 1584.28,380.02              1588.00,375.92 1590.11,374.64 1595.00,372.26              1606.07,366.86 1613.32,367.90 1621.91,377.01              1625.08,380.38 1626.60,382.61 1628.00,387.00              1628.00,387.00 1654.00,367.37 1654.00,367.37              1659.15,363.53 1664.31,359.61 1671.00,359.21              1676.58,358.88 1681.44,361.77 1686.00,364.58              1695.08,370.17 1704.20,378.99 1709.95,388.00              1732.30,423.03 1725.00,470.44 1725.00,510.00              1729.86,507.86 1744.53,500.68 1749.00,501.60              1753.65,502.55 1757.74,506.81 1761.00,510.00              1759.01,500.11 1757.02,493.41 1757.00,483.00              1757.00,483.00 1757.00,460.00 1757.00,460.00              1757.04,431.71 1771.07,394.26 1794.00,376.90              1807.75,366.49 1820.31,364.54 1837.00,366.72              1844.46,367.69 1848.35,368.44 1855.00,372.46              1870.36,381.76 1878.94,394.79 1887.31,410.00              1895.29,424.51 1899.20,426.27 1899.00,444.00              1898.84,456.95 1892.53,464.57 1889.30,476.00              1884.88,491.63 1883.96,508.88 1884.00,525.00              1892.69,522.96 1900.17,517.98 1907.00,512.38              1910.46,509.55 1915.54,503.63 1920.00,503.41              1924.00,503.22 1928.24,506.51 1930.99,509.09              1937.74,515.44 1944.55,527.57 1944.96,537.00              1945.35,545.95 1941.57,549.02 1935.00,554.56              1926.61,561.64 1912.24,570.71 1901.00,570.99              1896.51,571.09 1893.23,570.94 1889.00,569.24              1874.59,563.45 1860.50,542.94 1857.00,528.00              1846.96,538.92 1833.09,558.01 1818.00,561.47              1815.12,562.13 1811.01,562.03 1808.00,562.00              1803.87,561.95 1801.87,561.77 1798.00,560.12              1794.29,558.54 1791.03,556.47 1788.00,553.82              1782.45,548.96 1776.69,542.71 1772.00,537.00              1771.46,546.21 1766.65,547.15 1759.00,550.42              1750.43,554.08 1741.51,557.26 1732.00,555.68              1710.98,552.17 1693.03,526.60 1693.00,506.00              1693.00,506.00 1693.00,483.00 1693.00,483.00              1693.00,483.00 1693.96,471.00 1693.96,471.00              1693.96,471.00 1693.96,459.00 1693.96,459.00              1693.96,459.00 1695.00,438.00 1695.00,438.00              1695.00,438.00 1693.42,415.00 1693.42,415.00              1693.06,412.50 1692.82,408.28 1690.57,406.73              1687.78,404.80 1684.18,408.03 1682.00,409.63              1682.00,409.63 1662.00,425.26 1662.00,425.26              1662.00,425.26 1643.00,440.65 1643.00,440.65              1640.48,442.59 1634.39,446.65 1633.02,449.10              1631.57,451.71 1630.26,467.07 1629.84,471.00              1629.84,471.00 1625.91,508.00 1625.91,508.00              1625.91,508.00 1624.96,518.00 1624.96,518.00              1624.96,518.00 1624.96,533.00 1624.96,533.00              1624.96,533.00 1624.04,541.00 1624.04,541.00              1623.89,544.39 1624.49,548.82 1621.57,551.26              1617.01,555.06 1610.36,550.05 1607.01,546.91              1598.27,538.70 1593.02,526.93 1593.00,515.00              1593.00,515.00 1594.00,491.00 1594.00,491.00              1594.00,491.00 1595.83,460.00 1595.83,460.00              1595.83,460.00 1599.00,435.00 1599.00,435.00              1588.69,439.09 1585.76,438.00 1575.00,438.00 Z            M 1186.00,391.00            C 1181.97,391.66 1177.81,390.77 1174.00,392.57              1163.91,397.34 1156.49,416.77 1153.00,427.00              1146.42,446.33 1140.77,471.56 1141.00,492.00              1141.00,492.00 1143.00,513.00 1143.00,513.00              1149.86,511.32 1156.00,505.79 1161.00,500.96              1172.34,489.98 1185.00,469.25 1192.24,455.00              1194.24,451.07 1201.00,437.80 1200.89,434.00              1200.81,431.33 1195.35,422.80 1193.82,419.00              1193.82,419.00 1186.00,391.00 1186.00,391.00 Z            M 1485.00,407.00            C 1476.51,421.93 1472.03,445.85 1472.00,463.00              1472.00,463.00 1472.00,476.00 1472.00,476.00              1472.01,480.20 1472.82,490.03 1473.67,494.00              1473.67,494.00 1478.14,509.00 1478.14,509.00              1478.76,511.12 1479.58,514.68 1481.51,515.96              1483.95,517.59 1488.53,515.92 1491.00,514.91              1498.96,511.64 1507.51,503.38 1513.15,497.00              1518.81,490.61 1523.15,485.39 1527.55,478.00              1535.85,464.05 1544.59,437.28 1543.96,421.00              1543.76,415.87 1542.65,406.15 1538.61,402.70              1534.13,398.87 1524.62,398.94 1519.00,399.00              1512.59,399.08 1505.98,400.54 1500.00,402.81              1494.48,404.91 1491.01,407.82 1485.00,407.00 Z            M 1790.00,517.00            C 1802.36,516.72 1810.78,507.92 1818.42,499.00              1832.73,482.30 1844.88,465.74 1854.75,446.00              1858.70,438.10 1860.30,432.58 1862.25,424.00              1862.97,420.80 1863.09,416.16 1860.44,413.74              1858.48,411.95 1853.67,411.78 1851.00,411.42              1837.73,409.65 1825.78,414.08 1816.04,423.17              1796.71,441.22 1787.88,474.24 1788.00,500.00              1788.03,505.74 1788.99,511.36 1790.00,517.00 Z            M 1352.00,419.00            C 1352.00,419.00 1341.70,435.00 1341.70,435.00              1341.70,435.00 1330.00,455.00 1330.00,455.00              1330.00,455.00 1309.33,487.00 1309.33,487.00              1309.33,487.00 1299.00,503.00 1299.00,503.00              1308.48,505.38 1309.43,509.83 1317.00,514.53              1327.35,520.96 1334.28,522.00 1346.00,523.17              1349.12,523.48 1350.66,524.05 1354.00,523.82              1361.84,523.26 1369.60,522.02 1377.00,519.30              1382.04,517.45 1386.71,514.45 1391.00,511.24              1398.48,505.65 1408.25,494.26 1406.19,484.00              1405.11,478.67 1394.81,466.42 1391.00,462.00              1391.00,462.00 1363.09,432.00 1363.09,432.00              1363.09,432.00 1352.00,419.00 1352.00,419.00 Z            M 341.10,426.78            C 347.06,425.79 350.90,428.98 354.96,433.04              362.75,440.82 369.56,454.74 367.79,466.00              366.38,474.99 354.63,483.82 347.00,487.74              331.59,495.66 324.47,495.24 308.00,494.09              299.59,493.50 291.71,492.48 284.00,488.63              276.39,484.82 267.83,476.55 262.46,470.00              256.56,462.80 248.85,450.45 248.09,441.00              247.85,437.99 247.69,432.82 249.74,430.43              253.10,426.50 258.64,429.07 262.00,431.56              268.45,436.32 271.07,441.97 274.18,444.49              276.92,446.71 282.51,448.20 286.00,448.70              300.98,450.86 315.62,449.35 327.99,439.76              333.81,435.25 336.70,429.38 341.10,426.78 Z"
     style="fill:#de6500;fill-opacity:1;stroke:none" />
</svg>
